<svg width="260" height="32" viewBox="0 0 260 32" fill="none" xmlns="http://www.w3.org/2000/svg">
<rect x="0.5" y="0.5" width="55" height="31" rx="5.5" fill="white"/>
<rect x="0.5" y="0.5" width="55" height="31" rx="5.5" stroke="#F4F4F4"/>
<circle cx="22" cy="16" r="9" fill="#E80B26"/>
<circle cx="34" cy="16" r="9" fill="#F59D31"/>
<path d="M28 22.7085C29.8413 21.0605 31 18.6658 31 16.0002C31 13.3347 29.8413 10.9399 28 9.29199C26.1587 10.9399 25 13.3347 25 16.0002C25 18.6658 26.1587 21.0605 28 22.7085Z" fill="#FC6020"/>
<rect x="68.5" y="0.5" width="55" height="31" rx="5.5" fill="white"/>
<rect x="68.5" y="0.5" width="55" height="31" rx="5.5" stroke="#F4F4F4"/>
<path d="M96.6035 14.0636C96.5835 15.5592 98.0126 16.3939 99.0892 16.8902C100.195 17.3994 100.567 17.7259 100.563 18.1811C100.554 18.8781 99.6803 19.1856 98.8623 19.1976C97.4353 19.2185 96.6057 18.8331 95.946 18.5416L95.432 20.817C96.0937 21.1056 97.3192 21.3572 98.59 21.3682C101.573 21.3682 103.524 19.9753 103.535 17.8157C103.547 15.075 99.5273 14.9232 99.5547 13.6982C99.5642 13.3267 99.9389 12.9304 100.76 12.8295C101.166 12.7786 102.288 12.7397 103.56 13.2938L104.06 11.0922C103.376 10.8566 102.496 10.631 101.402 10.631C98.5942 10.631 96.6194 12.0427 96.6035 14.0636ZM108.857 10.8207C108.312 10.8207 107.853 11.1212 107.648 11.5825L103.387 21.2064H106.368L106.961 19.6558H110.604L110.948 21.2064H113.575L111.282 10.8207H108.857ZM109.274 13.6263L110.134 17.5262H107.778L109.274 13.6263ZM92.9895 10.8207L90.64 21.2064H93.4803L95.8288 10.8207H92.9895ZM88.7876 10.8207L85.8312 17.8896L84.6353 11.879C84.4949 11.2081 83.9408 10.8207 83.3255 10.8207H78.4924L78.4248 11.1222C79.417 11.3259 80.5442 11.6544 81.2271 12.0058C81.6451 12.2205 81.7644 12.4082 81.9016 12.9184L84.1667 21.2064H87.1685L91.7704 10.8207H88.7876Z" fill="url(#paint0_linear_1_23417)"/>
<rect x="136.5" y="0.5" width="55" height="31" rx="5.5" fill="white"/>
<rect x="136.5" y="0.5" width="55" height="31" rx="5.5" stroke="#F4F4F4"/>
<path d="M173.701 18.4183C172.365 23.7783 166.934 27.0365 161.582 25.7004C156.222 24.3643 152.963 18.934 154.3 13.5817C155.636 8.22169 161.058 4.96347 166.419 6.29958C171.771 7.62787 175.037 13.0582 173.701 18.4183Z" fill="url(#paint1_linear_1_23417)"/>
<path d="M168.761 14.7539C168.956 13.4258 167.948 12.707 166.558 12.2305L167.011 10.4258L165.917 10.1523L165.479 11.9102C165.19 11.8398 164.894 11.7695 164.597 11.707L165.034 9.94141L163.94 9.66797L163.495 11.4648C163.253 11.4102 163.019 11.3555 162.792 11.3008V11.293L161.276 10.918L160.987 12.0898C160.987 12.0898 161.8 12.2773 161.784 12.2852C162.229 12.3945 162.308 12.6914 162.292 12.9258L161.776 14.9805C161.808 14.9883 161.847 14.9961 161.894 15.0195C161.854 15.0117 161.815 15.0039 161.776 14.9883L161.058 17.8633C161.003 17.9961 160.862 18.1992 160.558 18.1211C160.565 18.1367 159.761 17.9258 159.761 17.9258L159.214 19.1836L160.644 19.543C160.909 19.6133 161.167 19.6758 161.425 19.7461L160.972 21.5664L162.065 21.8398L162.519 20.0352C162.815 20.1133 163.112 20.1914 163.394 20.2617L162.948 22.0586L164.042 22.332L164.495 20.5117C166.37 20.8633 167.776 20.7227 168.362 19.0273C168.839 17.668 168.339 16.8789 167.354 16.3633C168.081 16.1992 168.62 15.7227 168.761 14.7539ZM166.253 18.2695C165.917 19.6289 163.62 18.8945 162.878 18.707L163.479 16.293C164.222 16.4805 166.612 16.8477 166.253 18.2695ZM166.597 14.7305C166.284 15.9727 164.378 15.3398 163.761 15.1836L164.308 12.9961C164.925 13.1523 166.917 13.4414 166.597 14.7305Z" fill="white"/>
<rect x="204.5" y="0.5" width="55" height="31" rx="5.5" fill="white"/>
<rect x="204.5" y="0.5" width="55" height="31" rx="5.5" stroke="#F4F4F4"/>
<mask id="mask0_1_23417" style="mask-type:luminance" maskUnits="userSpaceOnUse" x="222" y="6" width="20" height="20">
<path d="M222 6H242V26H222V6Z" fill="white"/>
</mask>
<g mask="url(#mask0_1_23417)">
<path d="M223.951 6.34082H240.049C240.261 6.34081 240.47 6.38243 240.665 6.46333C240.861 6.54423 241.038 6.6628 241.188 6.8123C241.337 6.96179 241.456 7.13926 241.537 7.33459C241.618 7.52992 241.659 7.73927 241.659 7.9507V24.0495C241.659 24.2609 241.618 24.4702 241.537 24.6656C241.456 24.8609 241.337 25.0383 241.188 25.1878C241.038 25.3373 240.861 25.4559 240.665 25.5367C240.47 25.6176 240.261 25.6593 240.049 25.6592H223.95C223.524 25.6592 223.114 25.4897 222.812 25.1878C222.51 24.886 222.341 24.4766 222.341 24.0497V7.95058C222.341 7.52364 222.51 7.11419 222.812 6.8123C223.114 6.51042 223.524 6.34082 223.951 6.34082Z" fill="#FDB913"/>
<path d="M240.049 6.34073C240.476 6.34085 240.886 6.51052 241.187 6.81244C241.489 7.11436 241.659 7.52379 241.659 7.95072V24.0494C241.659 24.4763 241.489 24.8857 241.187 25.1876C240.886 25.4895 240.476 25.6592 240.049 25.6593H223.951C223.739 25.6593 223.53 25.6177 223.334 25.5368C223.139 25.4559 222.962 25.3373 222.812 25.1878C222.663 25.0383 222.544 24.8609 222.463 24.6655C222.382 24.4702 222.341 24.2608 222.341 24.0494V7.95072C222.341 7.73929 222.382 7.52992 222.463 7.33458C222.544 7.13923 222.663 6.96173 222.812 6.81222C222.962 6.66271 223.139 6.54412 223.334 6.46322C223.53 6.38232 223.739 6.3407 223.951 6.34073H240.049ZM240.049 6H223.951C223.433 6.00055 222.938 6.20625 222.572 6.57196C222.206 6.93768 222.001 7.43354 222 7.95072V24.0494C222.001 24.5665 222.206 25.0624 222.572 25.428C222.938 25.7937 223.433 25.9994 223.951 26H240.049C240.566 25.9994 241.062 25.7937 241.428 25.428C241.793 25.0623 241.999 24.5665 242 24.0494V7.95072C241.999 7.43357 241.794 6.93773 241.428 6.57201C241.062 6.2063 240.566 6.00058 240.049 6Z" fill="white"/>
<path d="M233.127 16.2084L233.126 12.7496L234.028 12.5354V12.9889C234.028 12.9889 234.262 12.3926 234.805 12.2542C234.886 12.2281 234.972 12.2223 235.056 12.2373V13.1198C234.893 13.122 234.733 13.1554 234.583 13.2183C234.249 13.35 234.081 13.6375 234.081 14.0764L234.082 15.9862L233.127 16.2084ZM228.368 17.3332C228.368 17.3332 228.221 17.1131 228.221 16.3348V14.6128L227.756 14.7233V14.0137L228.222 13.9038V13.1303L229.182 12.9036V13.677L229.86 13.5159V14.2245L229.182 14.3855C229.182 14.3855 229.181 15.7965 229.182 16.1391C229.182 16.9366 229.394 17.0897 229.394 17.0897L228.368 17.3332ZM229.961 15.2755C229.961 14.6606 230.048 14.212 230.236 13.8677C230.46 13.4592 230.827 13.1929 231.361 13.0713C232.414 12.8318 232.794 13.4552 232.78 14.2911C232.774 14.59 232.775 14.7357 232.775 14.7357L230.92 15.1718V15.2016C230.92 15.7858 231.042 16.0629 231.412 15.9843C231.732 15.9169 231.821 15.7167 231.846 15.469C231.851 15.4291 231.852 15.3275 231.852 15.3275L232.722 15.1192C232.722 15.1192 232.724 15.1904 232.722 15.2702C232.715 15.6021 232.618 16.4254 231.41 16.7111C230.266 16.9827 229.961 16.2838 229.961 15.2754M231.4 13.7156C231.092 13.7853 230.931 14.0869 230.924 14.5866L231.857 14.3643C231.859 14.3417 231.859 14.2919 231.859 14.2139C231.857 13.8366 231.741 13.6375 231.4 13.7156ZM238.305 13.2528C238.269 12.1994 238.543 11.3634 239.718 11.0972C240.467 10.927 240.751 11.1218 240.895 11.3102C241.034 11.4899 241.087 11.7322 241.087 12.0717L241.088 12.134L240.169 12.3525L240.168 12.2246C240.169 11.822 240.057 11.6689 239.764 11.7421C239.417 11.8295 239.276 12.1595 239.276 12.8157C239.276 13.0487 239.277 13.0905 239.277 13.1219C239.277 13.7888 239.368 14.094 239.769 14.0102C240.117 13.9383 240.164 13.633 240.17 13.3654C240.171 13.3234 240.172 13.1889 240.172 13.1889L241.091 12.972C241.091 12.972 241.091 13.0398 241.091 13.1152C241.089 13.9897 240.628 14.5408 239.765 14.7418C238.575 15.0206 238.342 14.3332 238.305 13.2528M235.127 14.7276C235.127 13.9264 235.596 13.673 236.303 13.3807C236.938 13.1179 236.952 12.9874 236.954 12.759C236.958 12.5668 236.869 12.4023 236.553 12.483C236.447 12.5043 236.352 12.5605 236.282 12.6427C236.213 12.7248 236.173 12.828 236.17 12.9355C236.165 12.9946 236.163 13.0538 236.164 13.1131L235.273 13.3234C235.267 13.1459 235.288 12.9685 235.334 12.7971C235.477 12.318 235.899 11.9956 236.629 11.8268C237.577 11.6084 237.892 12.0243 237.894 12.6712V14.2032C237.894 14.9441 238.031 15.0527 238.031 15.0527L237.157 15.2596C237.108 15.1585 237.069 15.0534 237.039 14.9455C237.039 14.9455 236.848 15.4279 236.188 15.5831C235.494 15.7466 235.127 15.3168 235.127 14.7276ZM236.948 13.6335C236.801 13.7369 236.645 13.828 236.483 13.906C236.192 14.0484 236.06 14.2241 236.06 14.4947C236.06 14.729 236.205 14.8829 236.469 14.8177C236.752 14.7464 236.948 14.4823 236.948 14.1154V13.6335ZM223.348 19.7578C223.249 19.7577 223.151 19.7306 223.065 19.6795C222.979 19.6284 222.909 19.5552 222.861 19.4675C222.814 19.3797 222.79 19.2808 222.794 19.1811C222.798 19.0813 222.829 18.9845 222.883 18.9007L222.889 18.8927L222.9 18.8899L224.206 18.5817V19.5734L224.185 19.5781C223.945 19.636 223.704 19.692 223.462 19.746C223.425 19.7539 223.387 19.7578 223.348 19.7578ZM223.348 21.0264C223.201 21.0264 223.061 20.9681 222.957 20.8642C222.853 20.7604 222.794 20.6196 222.794 20.4726C222.794 20.3656 222.825 20.2608 222.883 20.1711L222.889 20.162L222.9 20.1592L224.206 19.8511V20.8427L224.185 20.848C223.889 20.9192 223.535 21.0011 223.462 21.0157C223.425 21.0229 223.387 21.0265 223.348 21.0264ZM223.348 22.2975C223.201 22.2974 223.06 22.2389 222.956 22.135C222.853 22.0311 222.794 21.8901 222.794 21.7432C222.794 21.6361 222.825 21.5313 222.883 21.4418L222.889 21.4318L224.206 21.1216V22.1131L224.185 22.1185C223.872 22.1938 223.525 22.2723 223.462 22.2861C223.425 22.2936 223.387 22.2974 223.348 22.2975ZM224.206 12.755V18.3035L223.194 18.5427L223.194 12.9941L224.206 12.755ZM225.714 18.0705C225.715 17.9879 225.7 17.9058 225.669 17.8291C225.638 17.7524 225.592 17.6826 225.534 17.6237C225.476 17.5649 225.407 17.5181 225.331 17.4862C225.254 17.4543 225.173 17.4379 225.09 17.4379C225.007 17.4379 224.925 17.4543 224.849 17.4862C224.773 17.5181 224.704 17.5649 224.645 17.6237C224.587 17.6826 224.542 17.7524 224.511 17.8291C224.48 17.9058 224.465 17.9879 224.466 18.0705L224.467 23.2566C224.467 23.7045 224.645 24.1338 224.962 24.4506C225.279 24.7674 225.708 24.9457 226.156 24.9466C226.628 24.9466 227.922 24.9443 227.922 24.9443L227.923 22.7808L227.923 20.3682C227.924 20.2337 227.891 20.1012 227.827 19.9826C227.764 19.8639 227.672 19.7627 227.56 19.688L225.986 18.6184L225.985 21.0471C225.985 21.0648 225.982 21.0822 225.975 21.0985C225.969 21.1148 225.959 21.1296 225.946 21.1421C225.934 21.1545 225.919 21.1644 225.903 21.1712C225.886 21.1779 225.869 21.1814 225.851 21.1814C225.834 21.1814 225.816 21.1779 225.8 21.1712C225.784 21.1644 225.769 21.1545 225.756 21.1421C225.744 21.1296 225.734 21.1148 225.727 21.0985C225.72 21.0822 225.717 21.0648 225.717 21.0471C225.717 21.0211 225.714 18.3913 225.714 18.0705ZM226.557 14.2013C226.366 14.2458 226.186 14.3309 226.031 14.4511C225.875 14.5712 225.748 14.7235 225.656 14.8975V14.5075L224.746 14.7231L224.747 17.2134C224.907 17.1502 225.081 17.1325 225.25 17.162C225.419 17.1916 225.577 17.2674 225.706 17.3811V15.7732C225.706 15.388 225.897 15.0803 226.171 15.0199C226.377 14.9747 226.549 15.0484 226.549 15.4153L226.55 17.7613L227.509 17.5363V15.0546C227.509 14.4529 227.278 14.0323 226.557 14.2013ZM240.497 10.65C240.379 10.6502 240.264 10.6155 240.167 10.5503C240.069 10.4852 239.993 10.3926 239.948 10.2842C239.903 10.1758 239.891 10.0565 239.914 9.94143C239.937 9.82634 239.994 9.7206 240.077 9.63762C240.16 9.55464 240.265 9.49813 240.38 9.47525C240.495 9.45237 240.615 9.46415 240.723 9.50909C240.832 9.55403 240.924 9.63012 240.989 9.72773C241.054 9.82533 241.089 9.94007 241.089 10.0574C241.089 10.2145 241.026 10.3652 240.915 10.4763C240.804 10.5874 240.654 10.6498 240.497 10.65ZM240.497 9.53869C240.394 9.53867 240.294 9.56906 240.208 9.62603C240.123 9.683 240.057 9.76398 240.017 9.85873C239.978 9.95349 239.968 10.0578 239.988 10.1584C240.008 10.259 240.057 10.3514 240.13 10.4239C240.202 10.4965 240.295 10.5459 240.395 10.5659C240.496 10.586 240.6 10.5757 240.695 10.5365C240.79 10.4972 240.871 10.4308 240.928 10.3455C240.985 10.2602 241.015 10.16 241.015 10.0574C241.015 9.91992 240.96 9.78808 240.863 9.69084C240.766 9.59359 240.634 9.53887 240.497 9.53869Z" fill="#231F20"/>
<path d="M240.28 9.70408H240.536C240.561 9.7014 240.586 9.70439 240.61 9.71282C240.633 9.72124 240.655 9.7349 240.673 9.75276C240.69 9.77063 240.704 9.79224 240.712 9.816C240.72 9.83976 240.723 9.86505 240.72 9.88999C240.72 9.98398 240.678 10.0562 240.599 10.0684V10.0698C240.671 10.0772 240.709 10.1168 240.712 10.2186C240.714 10.2645 240.714 10.3214 240.716 10.3657C240.717 10.3782 240.72 10.3904 240.726 10.4013C240.732 10.4123 240.74 10.4215 240.751 10.4282H240.62C240.608 10.4091 240.601 10.3868 240.601 10.364C240.597 10.3207 240.598 10.2798 240.596 10.2273C240.594 10.1483 240.57 10.1137 240.49 10.1137H240.396V10.4281H240.28V9.70408ZM240.488 10.0266C240.504 10.028 240.52 10.0259 240.535 10.0205C240.549 10.0151 240.563 10.0064 240.574 9.99521C240.585 9.98398 240.593 9.97043 240.598 9.95555C240.604 9.94067 240.605 9.92483 240.604 9.90916C240.604 9.83192 240.571 9.7913 240.494 9.7913H240.396V10.0266H240.488Z" fill="#231F20"/>
</g>
<defs>
<linearGradient id="paint0_linear_1_23417" x1="94.5847" y1="21.5836" x2="94.8787" y2="10.5554" gradientUnits="userSpaceOnUse">
<stop stop-color="#222357"/>
<stop offset="1" stop-color="#254AA5"/>
</linearGradient>
<linearGradient id="paint1_linear_1_23417" x1="163.995" y1="5.99529" x2="163.995" y2="25.998" gradientUnits="userSpaceOnUse">
<stop stop-color="#F9AA4B"/>
<stop offset="1" stop-color="#F7931A"/>
</linearGradient>
</defs>
</svg>
